<svg width="1026" height="553" viewBox="0 0 1026 553" fill="none" xmlns="http://www.w3.org/2000/svg">
<path d="M87 47C52 46.1667 -15.5 33.5 4 83L97.5 178C157.534 257 98.5173 214.71 87 445.5C74 706 201.636 388.74 228 382C294.5 365 315.894 403.5 341.5 423.5C397.016 466.861 527.517 536.619 645 548C805 563.5 857.507 528.175 938 462C992.737 417 1062.29 236.275 1002 132.5C941 27.5 903.5 22.5 875 10.5C840 -4.23686 775.79 -3.76143 667 27.5C580 52.5 528.5 86 503.5 107.749L396 178C362.5 187 298.2 177.3 239 132.5C179.8 87.7 98.3333 47.8333 87 47Z" stroke="black"/>
</svg>
